<?xml version="1.0" encoding="UTF-8" standalone="no"?>
<svg
   xmlns:dc="http://purl.org/dc/elements/1.1/"
   xmlns:cc="http://creativecommons.org/ns#"
   xmlns:rdf="http://www.w3.org/1999/02/22-rdf-syntax-ns#"
   xmlns:svg="http://www.w3.org/2000/svg"
   xmlns="http://www.w3.org/2000/svg"
   xmlns:xlink="http://www.w3.org/1999/xlink"
   xmlns:sodipodi="http://sodipodi.sourceforge.net/DTD/sodipodi-0.dtd"
   xmlns:inkscape="http://www.inkscape.org/namespaces/inkscape"
   inkscape:version="1.0 (4035a4fb49, 2020-05-01)"
   sodipodi:docname="image-rules-bonus.svg"
   id="svg197"
   version="1.1"
   height="336"
   width="360">
  <metadata
     id="metadata201">
    <rdf:RDF>
      <cc:Work
         rdf:about="">
        <dc:format>image/svg+xml</dc:format>
        <dc:type
           rdf:resource="http://purl.org/dc/dcmitype/StillImage" />
        <dc:title></dc:title>
      </cc:Work>
    </rdf:RDF>
  </metadata>
  <sodipodi:namedview
     inkscape:current-layer="g195"
     inkscape:window-maximized="1"
     inkscape:window-y="28"
     inkscape:window-x="1920"
     inkscape:cy="246.95552"
     inkscape:cx="168"
     inkscape:zoom="2.6090909"
     showgrid="false"
     id="namedview199"
     inkscape:window-height="1018"
     inkscape:window-width="1920"
     inkscape:pageshadow="2"
     inkscape:pageopacity="0"
     guidetolerance="10"
     gridtolerance="10"
     objecttolerance="10"
     borderopacity="1"
     bordercolor="#666666"
     pagecolor="#ffffff" />
  <defs
     id="defs7">
    <linearGradient
       y2="1"
       y1="0"
       x2="0.5"
       x1="0.5"
       id="a">
      <stop
         id="stop2"
         stop-opacity=".097"
         stop-color="#FFF"
         offset="0%" />
      <stop
         id="stop4"
         stop-opacity="0"
         stop-color="#FFF"
         offset="100%" />
    </linearGradient>
    <linearGradient
       gradientUnits="userSpaceOnUse"
       gradientTransform="scale(1.013148,0.9870226)"
       y2="101.66333"
       x2="50.831665"
       y1="0"
       x1="50.831665"
       id="linearGradient1026"
       xlink:href="#a"
       inkscape:collect="always" />
    <linearGradient
       gradientUnits="userSpaceOnUse"
       gradientTransform="scale(1.013148,0.9870226)"
       y2="101.66333"
       x2="50.831665"
       y1="0"
       x1="50.831665"
       id="linearGradient1028"
       xlink:href="#a"
       inkscape:collect="always" />
    <linearGradient
       gradientUnits="userSpaceOnUse"
       gradientTransform="scale(1.013148,0.9870226)"
       y2="101.66333"
       x2="50.831665"
       y1="0"
       x1="50.831665"
       id="linearGradient1030"
       xlink:href="#a"
       inkscape:collect="always" />
    <linearGradient
       gradientUnits="userSpaceOnUse"
       gradientTransform="scale(1.013148,0.9870226)"
       y2="101.66333"
       x2="50.831665"
       y1="0"
       x1="50.831665"
       id="linearGradient1032"
       xlink:href="#a"
       inkscape:collect="always" />
    <linearGradient
       gradientUnits="userSpaceOnUse"
       gradientTransform="scale(1.013148,0.9870226)"
       y2="101.66333"
       x2="50.831665"
       y1="0"
       x1="50.831665"
       id="linearGradient1034"
       xlink:href="#a"
       inkscape:collect="always" />
  </defs>
  <g
     transform="translate(8)"
     id="g195"
     fill-rule="evenodd"
     fill="none">
    <g
       id="g19"
       transform="translate(233,94)">
      <ellipse
         id="ellipse9"
         ry="50.172001"
         rx="51.5"
         fill="#b1b4c5"
         cy="50.172001"
         cx="51.5" />
      <ellipse
         style="fill:url(#linearGradient1026)"
         id="ellipse11"
         ry="50.172001"
         rx="51.5"
         fill="url(#a)"
         cy="50.172001"
         cx="51.5" />
      <g
         id="g17"
         transform="translate(11.965,11.897)">
        <ellipse
           id="ellipse13"
           ry="39.310001"
           rx="39.535"
           fill="#e1e4ed"
           cy="39.310001"
           cx="39.535" />
        <path
           id="path15"
           d="m 54.896,29.133 a 2.078,2.078 0 0 0 -0.874,-0.14 c -0.405,0.028 -0.732,0.192 -0.925,0.46 -1.14,1.595 -2.074,4.607 -2.827,7.028 -0.345,1.119 -0.81,2.616 -1.145,3.327 -0.35,-1.991 0.045,-9.287 0.199,-12.096 l 0.002,-0.046 c 0.107,-1.952 0.121,-2.294 0.098,-2.444 -0.17,-1.07 -0.599,-1.774 -1.278,-2.088 -0.686,-0.32 -1.577,-0.178 -2.537,0.399 -0.481,0.29 -0.614,1.288 -1.028,5.81 l -0.001,0.02 c -0.228,2.485 -0.751,8.206 -1.395,9.159 -0.727,-1.333 -1.728,-8.907 -2.16,-12.185 -0.301,-2.296 -0.477,-3.614 -0.596,-4.012 -0.249,-0.834 -1.3,-1.544 -2.34,-1.583 -0.867,-0.043 -1.578,0.397 -1.917,1.162 -0.635,0.705 -0.41,3.045 0.29,8.586 0.335,2.637 1.024,8.084 0.59,8.695 -0.865,-0.094 -2.35,-3.506 -4.414,-10.144 -0.58,-1.86 -0.759,-2.418 -0.937,-2.663 -0.35,-0.853 -1.542,-1.51 -2.61,-1.436 -0.092,0.006 -0.18,0.018 -0.268,0.035 -0.56,0.11 -1.836,0.625 -1.564,2.998 0.754,3.29 1.573,5.705 2.367,8.05 l 0.016,0.046 c 0.476,1.404 0.925,2.731 1.343,4.204 0.984,3.476 0.601,5.633 0.596,5.658 -0.032,0.222 -0.1,0.357 -0.204,0.405 a 0.396,0.396 0 0 1 -0.139,0.031 c -0.311,0.022 -0.78,-0.185 -1.02,-0.319 -0.551,-1.051 -3.293,-6.062 -5.778,-6.757 l -0.09,-0.026 -0.09,0.008 c -0.911,0.086 -1.581,0.43 -1.991,1.023 -0.649,0.937 -0.38,2.13 -0.315,2.369 l 0.036,0.086 c 0.02,0.036 2.013,3.664 2.322,5.352 0.266,1.447 1.642,3.015 2.748,4.275 l 0.046,0.051 c 0.36,0.413 0.672,0.769 0.917,1.099 3.21,3.343 8.287,6.156 8.328,6.179 0.633,0.466 0.985,0.917 1.023,1.306 a 0.566,0.566 0 0 1 -0.114,0.41 l -0.11,0.116 0.702,0.681 13.392,-0.94 0.571,-2.613 c 1.766,-7.38 1.397,-13.672 1.391,-13.714 0.007,-0.232 0.502,-2.47 0.9,-4.28 l 0.011,-0.046 c 0.794,-3.603 1.78,-8.087 1.97,-9.793 0.082,-0.73 -0.386,-1.399 -1.19,-1.703 z"
           fill-rule="nonzero"
           fill="#8a90ac" />
      </g>
    </g>
    <g
       id="g31"
       transform="translate(0,94)">
      <ellipse
         id="ellipse21"
         ry="52.5"
         rx="51.5"
         fill="#b1b4c5"
         cy="52.5"
         cx="51.5" />
      <ellipse
         style="fill:url(#linearGradient1028)"
         id="ellipse23"
         ry="50.172001"
         rx="51.5"
         fill="url(#a)"
         cy="50.172001"
         cx="51.5" />
      <g
         id="g29"
         transform="translate(11.965,11.897)">
        <ellipse
           id="ellipse25"
           ry="39.310001"
           rx="39.535"
           fill="#e1e4ed"
           cy="39.310001"
           cx="39.535" />
        <path
           id="path27"
           d="m 56.968,42.321 -0.613,-0.61 c -1.465,-1.456 -3.86,-1.774 -5.647,-0.752 l -3.82,2.17 0.797,-17.382 a 2.654,2.654 0 0 0 -2.659,-2.644 c -0.317,0 -0.621,0.056 -0.904,0.158 l 0.095,-0.933 c 0,-1.474 -1.211,-2.673 -2.698,-2.673 -1.375,0 -2.528,1.025 -2.674,2.34 l -2.45,14.721 c -0.032,0.2 -0.381,0.18 -0.418,0.054 L 33.082,24.968 a 2.598,2.598 0 0 0 -2.487,-1.865 c -0.794,0 -1.533,0.356 -2.027,0.975 a 2.546,2.546 0 0 0 -0.49,2.186 l 0.563,2.376 a 2.376,2.376 0 0 0 -0.949,0.12 2.445,2.445 0 0 0 -1.652,2.708 l 1.703,9.739 c 0,3.842 0.678,6.685 1.246,8.392 0.324,0.974 0.488,1.999 0.488,3.045 0,0.911 -0.127,1.818 -0.38,2.693 l -1.32,4.599 a 0.863,0.863 0 0 0 0.833,1.098 h 15.607 a 0.866,0.866 0 0 0 0.823,-1.135 c -0.009,-0.022 -0.734,-2.248 -0.048,-5.276 0.87,-0.703 3.917,-3.166 5.011,-4.16 1.809,-1.642 6.764,-6.716 6.974,-6.932 a 0.858,0.858 0 0 0 -0.009,-1.21 z"
           fill-rule="nonzero"
           fill="#8a90ac" />
      </g>
    </g>
    <g
       id="g43"
       transform="translate(117,2)">
      <ellipse
         id="ellipse33"
         ry="52.5"
         rx="51.5"
         fill="#b1b4c5"
         cy="52.5"
         cx="51.5" />
      <ellipse
         style="fill:url(#linearGradient1030)"
         id="ellipse35"
         ry="50.172001"
         rx="51.5"
         fill="url(#a)"
         cy="50.172001"
         cx="51.5" />
      <g
         id="g41"
         transform="translate(11.965,11.897)">
        <ellipse
           id="ellipse37"
           ry="39.310001"
           rx="39.535"
           fill="#e1e4ed"
           cy="39.310001"
           cx="39.535" />
        <path
           id="path39"
           d="m 29.214,38.974 4.271,-5.97 c -1.775,-0.295 -5.035,-0.36 -7.705,2.295 -4.208,4.184 -5.913,13.225 -6.268,15.413 l 10.696,10.636 c 1.926,-0.164 10.452,-1.296 18.667,-9.464 0.087,-0.177 2.088,-1.647 0.452,-3.274 -0.78,-0.776 -2.073,-0.762 -2.871,0.032 a 1.01,1.01 0 0 1 -1.436,0.014 0.996,0.996 0 0 1 0.014,-1.428 l 2.903,-2.886 c 1.476,-1.467 0.085,-3.941 -1.974,-3.347 l -2.377,2.023 a 1.022,1.022 0 0 1 -1.435,-0.099 c -0.369,-0.424 -0.29,-1.067 0.13,-1.429 8.301,-7.242 7.09,-6.37 12.43,-11.347 1.996,-1.652 -0.515,-4.575 -2.481,-2.901 L 39.31,38.794 A 1.01,1.01 0 0 1 37.988,38.78 C 37.561,38.413 37.551,37.885 37.83,37.468 l 9.012,-13.931 c 1.318,-1.774 -1.275,-3.744 -2.663,-1.956 l -13.325,18.53 a 1.009,1.009 0 0 1 -1.41,0.246 0.976,0.976 0 0 1 -0.23,-1.383 z"
           fill-rule="nonzero"
           fill="#8a90ac" />
      </g>
    </g>
    <g
       id="g55"
       transform="translate(187,227)">
      <ellipse
         id="ellipse45"
         ry="52.5"
         rx="51.5"
         fill="#b1b4c5"
         cy="52.5"
         cx="51.5" />
      <ellipse
         style="fill:url(#linearGradient1032)"
         id="ellipse47"
         ry="50.172001"
         rx="51.5"
         fill="url(#a)"
         cy="50.172001"
         cx="51.5" />
      <g
         id="g53"
         transform="translate(11.965,11.897)">
        <ellipse
           id="ellipse49"
           ry="39.310001"
           rx="39.535"
           fill="#e1e4ed"
           cy="39.310001"
           cx="39.535" />
        <path
           id="path51"
           d="m 54.85,33.665 c -0.455,-5.744 -6.914,-5.157 -6.914,-5.157 -2.726,-4.8 -6.984,-1.323 -6.984,-1.323 -3.272,-4.704 -7.374,-0.345 -7.374,-0.345 -7.072,-0.762 -6.798,5.013 -6.798,5.013 -0.167,1.836 0.996,7.515 0.996,7.515 -1.049,-3.273 -3.325,-0.556 -3.325,-0.556 -2.797,4.312 -0.691,6.673 -0.691,6.673 3.785,4.431 11.854,9.75 11.854,9.75 2.92,1.671 1.685,3.161 1.685,3.161 l 17.67,-2.916 0.407,-3.346 c 2.686,-8.114 -0.525,-18.47 -0.525,-18.47 z"
           fill-rule="nonzero"
           fill="#8a90ac" />
      </g>
    </g>
    <g
       id="g67"
       transform="translate(46,227)">
      <ellipse
         id="ellipse57"
         ry="52.5"
         rx="51.5"
         fill="#b1b4c5"
         cy="52.5"
         cx="51.5" />
      <ellipse
         style="fill:url(#linearGradient1034)"
         id="ellipse59"
         ry="50.172001"
         rx="51.5"
         fill="url(#a)"
         cy="50.172001"
         cx="51.5" />
      <g
         id="g65"
         transform="translate(11.965,11.897)">
        <ellipse
           id="ellipse61"
           ry="39.310001"
           rx="39.535"
           fill="#e1e4ed"
           cy="39.310001"
           cx="39.535" />
        <path
           id="path63"
           d="m 52.31,21.516 c 2.294,-1.419 4.492,-1.726 6.19,-0.865 3.806,1.93 3.255,9.113 1.698,12.226 -0.88,1.757 -2.438,3.04 -4.637,3.821 -0.852,2.695 -2.048,5.011 -3.575,6.927 a 5.615,5.615 0 0 0 3.607,1.304 h 0.064 l 2.146,-2.116 a 1.397,1.397 0 0 1 1.956,0 1.35,1.35 0 0 1 0,1.929 l -0.19,0.187 H 60 c 0.764,0 1.383,0.61 1.383,1.364 0,0.753 -0.62,1.363 -1.383,1.363 h -0.432 l 0.19,0.188 a 1.35,1.35 0 0 1 0,1.928 c -0.27,0.267 -0.624,0.4 -0.978,0.4 -0.354,0 -0.708,-0.133 -0.978,-0.4 l -2.146,-2.116 h -0.064 a 8.404,8.404 0 0 1 -5.487,-2.027 15.99,15.99 0 0 1 -0.913,0.77 c -2.65,2.07 -5.892,3.275 -9.68,3.604 0.478,1.435 0.571,2.99 0.244,4.507 l -0.013,0.063 1.651,2.598 a 1.416,1.416 0 0 1 -0.418,1.944 1.387,1.387 0 0 1 -1.924,-0.423 l -0.146,-0.23 -0.093,0.43 a 1.396,1.396 0 0 1 -1.656,1.075 1.407,1.407 0 0 1 -1.065,-1.674 l 0.093,-0.43 -0.228,0.148 c -0.647,0.42 -1.508,0.231 -1.924,-0.423 a 1.416,1.416 0 0 1 0.419,-1.944 l 2.57,-1.67 0.014,-0.063 a 5.721,5.721 0 0 0 -0.507,-3.827 31.796,31.796 0 0 1 -3.407,-0.283 c -3.328,-0.45 -5.215,1.016 -5.714,1.476 -3.92,3.613 -4.679,9.998 -4.686,10.062 a 1.403,1.403 0 0 1 -1.391,1.247 1.4,1.4 0 0 1 -1.158,-0.615 c -0.063,-0.093 -1.538,-2.295 -2.185,-5.403 -0.879,-4.22 0.169,-8.093 3.03,-11.197 a 14.707,14.707 0 0 1 6.21,-3.985 l -0.292,0.076 a 5.682,5.682 0 0 0 -2.397,-0.53 h -0.064 l -2.154,2.116 c -0.271,0.267 -0.627,0.4 -0.982,0.4 -0.355,0 -0.71,-0.133 -0.982,-0.4 a 1.347,1.347 0 0 1 0,-1.928 l 0.191,-0.188 h -0.433 c -0.767,0 -1.389,-0.61 -1.389,-1.363 0,-0.754 0.622,-1.364 1.389,-1.364 h 0.433 l -0.19,-0.188 a 1.347,1.347 0 0 1 0,-1.928 1.406,1.406 0 0 1 1.963,0 l 2.154,2.116 h 0.064 c 2.345,0 4.568,0.96 6.152,2.643 L 30.537,40.69 a 16.297,16.297 0 0 1 3.802,0.067 c 3.513,0.475 6.386,-0.013 8.604,-1.456 a 8.658,8.658 0 0 1 -1.924,-5.463 v -0.065 l -2.124,-2.19 a 1.442,1.442 0 0 1 0,-1.995 1.34,1.34 0 0 1 1.936,0 l 0.187,0.194 v -0.44 c 0,-0.78 0.613,-1.411 1.37,-1.411 0.755,0 1.368,0.631 1.368,1.41 v 0.441 l 0.188,-0.194 a 1.34,1.34 0 0 1 1.935,0 c 0.815,0.84 0.227,1.762 0,1.996 l -2.123,2.189 v 0.065 c 0,1.332 0.45,2.606 1.259,3.618 1.002,-1.198 1.79,-2.703 2.36,-4.514 -0.417,-1.153 -1.065,-3.882 0.589,-6.978 0.866,-1.622 2.531,-3.326 4.345,-4.448 z"
           fill-rule="nonzero"
           fill="#8a90ac" />
      </g>
    </g>
    <g
       id="g75"
       transform="rotate(-40,154.90948,-61.778)"
       fill="#b1b4c5">
      <rect
         x="0"
         id="rect69"
         rx="1.3329999"
         y="6.6669998"
         height="2.6670001"
         width="32.692001" />
      <path
         id="path71"
         d="m 27.437,1.343 5.617,5.819 c 0.47,0.487 0.466,1.26 -0.009,1.744 a 1.187,1.187 0 0 1 -1.7,-0.009 L 25.728,3.078 a 1.249,1.249 0 0 1 0.009,-1.744 1.187,1.187 0 0 1 1.7,0.009 z" />
      <path
         id="path73"
         d="m 25.728,12.922 5.617,-5.82 a 1.187,1.187 0 0 1 1.7,-0.008 c 0.475,0.483 0.48,1.257 0.009,1.744 l -5.617,5.82 a 1.187,1.187 0 0 1 -1.7,0.008 1.249,1.249 0 0 1 -0.009,-1.744 z" />
    </g>
    <g
       id="g83"
       transform="matrix(0.76604444,0.64278761,0.64278761,-0.76604444,223.95168,74.879826)"
       fill="#b1b4c5">
      <rect
         x="0"
         id="rect77"
         rx="1.3329999"
         y="6.6669998"
         height="2.6670001"
         width="32.692001" />
      <path
         id="path79"
         d="m 27.437,1.343 5.617,5.819 c 0.47,0.487 0.466,1.26 -0.009,1.744 a 1.187,1.187 0 0 1 -1.7,-0.009 L 25.728,3.078 a 1.249,1.249 0 0 1 0.009,-1.744 1.187,1.187 0 0 1 1.7,0.009 z" />
      <path
         id="path81"
         d="m 25.728,12.922 5.617,-5.82 a 1.187,1.187 0 0 1 1.7,-0.008 c 0.475,0.483 0.48,1.257 0.009,1.744 l -5.617,5.82 a 1.187,1.187 0 0 1 -1.7,0.008 1.249,1.249 0 0 1 -0.009,-1.744 z" />
    </g>
    <g
       id="g91"
       transform="rotate(127,100.15042,181.558)"
       fill="#b1b4c5">
      <rect
         x="0"
         id="rect85"
         rx="1.3329999"
         y="6.6669998"
         height="2.6670001"
         width="32.692001" />
      <path
         id="path87"
         d="m 27.437,1.343 5.617,5.819 c 0.47,0.487 0.466,1.26 -0.009,1.744 a 1.187,1.187 0 0 1 -1.7,-0.009 L 25.728,3.078 a 1.249,1.249 0 0 1 0.009,-1.744 1.187,1.187 0 0 1 1.7,0.009 z" />
      <path
         id="path89"
         d="m 25.728,12.922 5.617,-5.82 a 1.187,1.187 0 0 1 1.7,-0.008 c 0.475,0.483 0.48,1.257 0.009,1.744 l -5.617,5.82 a 1.187,1.187 0 0 1 -1.7,0.008 1.249,1.249 0 0 1 -0.009,-1.744 z" />
    </g>
    <g
       id="g99"
       transform="matrix(-1,0,0,1,186,297)"
       fill="#b1b4c5">
      <rect
         x="0"
         id="rect93"
         rx="1.3329999"
         y="6.6669998"
         height="2.6670001"
         width="32.692001" />
      <path
         id="path95"
         d="m 27.437,1.343 5.617,5.819 c 0.47,0.487 0.466,1.26 -0.009,1.744 a 1.187,1.187 0 0 1 -1.7,-0.009 L 25.728,3.078 a 1.249,1.249 0 0 1 0.009,-1.744 1.187,1.187 0 0 1 1.7,0.009 z" />
      <path
         id="path97"
         d="m 25.728,12.922 5.617,-5.82 a 1.187,1.187 0 0 1 1.7,-0.008 c 0.475,0.483 0.48,1.257 0.009,1.744 l -5.617,5.82 a 1.187,1.187 0 0 1 -1.7,0.008 1.249,1.249 0 0 1 -0.009,-1.744 z" />
    </g>
    <g
       id="g107"
       transform="matrix(-0.60181502,-0.79863551,-0.79863551,0.60181502,64.421081,229.1613)"
       fill="#b1b4c5">
      <rect
         x="0"
         id="rect101"
         rx="1.3329999"
         y="6.6669998"
         height="2.6670001"
         width="32.692001" />
      <path
         id="path103"
         d="m 27.437,1.343 5.617,5.819 c 0.47,0.487 0.466,1.26 -0.009,1.744 a 1.187,1.187 0 0 1 -1.7,-0.009 L 25.728,3.078 a 1.249,1.249 0 0 1 0.009,-1.744 1.187,1.187 0 0 1 1.7,0.009 z" />
      <path
         id="path105"
         d="m 25.728,12.922 5.617,-5.82 a 1.187,1.187 0 0 1 1.7,-0.008 c 0.475,0.483 0.48,1.257 0.009,1.744 l -5.617,5.82 a 1.187,1.187 0 0 1 -1.7,0.008 1.249,1.249 0 0 1 -0.009,-1.744 z" />
    </g>
    <g
       transform="translate(0,2)"
       id="g173"
       fill="#b1b4c5">
      <g
         id="g115"
         transform="matrix(-1,0,0,1,212,131)">
        <rect
           id="rect109"
           rx="1.3329999"
           y="6.6669998"
           x="0.69199997"
           height="2.6670001"
           width="85" />
        <path
           id="path111"
           d="m 80.437,1.343 5.617,5.819 c 0.47,0.487 0.466,1.26 -0.009,1.744 a 1.187,1.187 0 0 1 -1.7,-0.009 L 78.728,3.078 a 1.249,1.249 0 0 1 0.009,-1.744 1.187,1.187 0 0 1 1.7,0.009 z" />
        <path
           id="path113"
           d="m 78.728,12.922 5.617,-5.82 a 1.187,1.187 0 0 1 1.7,-0.008 c 0.475,0.483 0.48,1.257 0.009,1.744 l -5.617,5.82 a 1.187,1.187 0 0 1 -1.7,0.008 1.249,1.249 0 0 1 -0.009,-1.744 z" />
      </g>
      <text
         y="135"
         x="120"
         id="text119"
         font-weight="bold"
         font-style="condensed"
         font-size="6px"
         font-family="BarlowSemiCondensed-Bold, 'Barlow Semi Condensed'"><tspan
           id="tspan117"
           y="149"
           x="156">VENCE</tspan></text>
      <g
         id="g127"
         transform="rotate(40,-169.505,247.617)">
        <rect
           id="rect121"
           rx="1.3329999"
           y="6.6669998"
           x="0.69199997"
           height="2.6670001"
           width="85" />
        <path
           id="path123"
           d="m 80.437,1.343 5.617,5.819 c 0.47,0.487 0.466,1.26 -0.009,1.744 a 1.187,1.187 0 0 1 -1.7,-0.009 L 78.728,3.078 a 1.249,1.249 0 0 1 0.009,-1.744 1.187,1.187 0 0 1 1.7,0.009 z" />
        <path
           id="path125"
           d="m 78.728,12.922 5.617,-5.82 a 1.187,1.187 0 0 1 1.7,-0.008 c 0.475,0.483 0.48,1.257 0.009,1.744 l -5.617,5.82 a 1.187,1.187 0 0 1 -1.7,0.008 1.249,1.249 0 0 1 -0.009,-1.744 z" />
      </g>
      <text
         y="44.778103"
         x="196.00423"
         id="text131"
         transform="rotate(40)"
         font-weight="bold"
         font-style="condensed"
         font-size="6px"
         font-family="BarlowSemiCondensed-Bold, 'Barlow Semi Condensed'"><tspan
           id="tspan129"
           y="50.778103"
           x="232.00423">VENCE</tspan></text>
      <g
         id="g139"
         transform="rotate(-40,381.505,-93.07)">
        <rect
           id="rect133"
           rx="1.3329999"
           y="6.6669998"
           x="0.69199997"
           height="2.6670001"
           width="85" />
        <path
           id="path135"
           d="m 80.437,1.343 5.617,5.819 c 0.47,0.487 0.466,1.26 -0.009,1.744 a 1.187,1.187 0 0 1 -1.7,-0.009 L 78.728,3.078 a 1.249,1.249 0 0 1 0.009,-1.744 1.187,1.187 0 0 1 1.7,0.009 z" />
        <path
           id="path137"
           d="m 78.728,12.922 5.617,-5.82 a 1.187,1.187 0 0 1 1.7,-0.008 c 0.475,0.483 0.48,1.257 0.009,1.744 l -5.617,5.82 a 1.187,1.187 0 0 1 -1.7,0.008 1.249,1.249 0 0 1 -0.009,-1.744 z" />
      </g>
      <text
         id="text143"
         transform="rotate(-40,373.263,-90.07)"
         font-weight="bold"
         font-style="condensed"
         font-size="6px"
         font-family="BarlowSemiCondensed-Bold, 'Barlow Semi Condensed'"><tspan
           id="tspan141"
           y="6"
           x="36">VENCE</tspan></text>
      <g
         id="g157">
        <g
           id="g151"
           transform="rotate(-110,176.867,31.934)">
          <rect
             id="rect145"
             rx="1.3329999"
             y="6.6669998"
             x="0.69199997"
             height="2.6670001"
             width="85" />
          <path
             id="path147"
             d="m 80.437,1.343 5.617,5.819 c 0.47,0.487 0.466,1.26 -0.009,1.744 a 1.187,1.187 0 0 1 -1.7,-0.009 L 78.728,3.078 a 1.249,1.249 0 0 1 0.009,-1.744 1.187,1.187 0 0 1 1.7,0.009 z" />
          <path
             id="path149"
             d="m 78.728,12.922 5.617,-5.82 a 1.187,1.187 0 0 1 1.7,-0.008 c 0.475,0.483 0.48,1.257 0.009,1.744 l -5.617,5.82 a 1.187,1.187 0 0 1 -1.7,0.008 1.249,1.249 0 0 1 -0.009,-1.744 z" />
        </g>
        <text
           y="115.46481"
           x="-266.68268"
           id="text155"
           transform="rotate(-110)"
           font-weight="bold"
           font-style="condensed"
           font-size="6px"
           font-family="BarlowSemiCondensed-Bold, 'Barlow Semi Condensed'"><tspan
             id="tspan153"
             y="121.46481"
             x="-230.68268">VENCE</tspan></text>
      </g>
      <g
         id="g171">
        <g
           id="g165"
           transform="rotate(110,35.133,118.76)">
          <rect
             id="rect159"
             rx="1.3329999"
             y="6.6669998"
             x="0.69199997"
             height="2.6670001"
             width="85" />
          <path
             id="path161"
             d="m 80.437,1.343 5.617,5.819 c 0.47,0.487 0.466,1.26 -0.009,1.744 a 1.187,1.187 0 0 1 -1.7,-0.009 L 78.728,3.078 a 1.249,1.249 0 0 1 0.009,-1.744 1.187,1.187 0 0 1 1.7,0.009 z" />
          <path
             id="path163"
             d="m 78.728,12.922 5.617,-5.82 a 1.187,1.187 0 0 1 1.7,-0.008 c 0.475,0.483 0.48,1.257 0.009,1.744 l -5.617,5.82 a 1.187,1.187 0 0 1 -1.7,0.008 1.249,1.249 0 0 1 -0.009,-1.744 z" />
        </g>
        <text
           y="-198.22015"
           x="58.125996"
           id="text169"
           transform="rotate(110)"
           font-weight="bold"
           font-style="condensed"
           font-size="6px"
           font-family="BarlowSemiCondensed-Bold, 'Barlow Semi Condensed'"><tspan
             id="tspan167"
             y="-192.22015"
             x="94.125992">VENCE</tspan></text>
      </g>
    </g>
    <text
       x="4"
       y="8"
       id="text177"
       font-weight="bold"
       font-style="condensed"
       font-size="11px"
       font-family="BarlowSemiCondensed-Bold, 'Barlow Semi Condensed'"
       fill="#b1b4c5"><tspan
         id="tspan175"
         y="72"
         x="256">VENCE</tspan></text>
    <text
       y="6"
       x="-10"
       id="text181"
       font-weight="bold"
       font-style="condensed"
       font-size="11px"
       font-family="BarlowSemiCondensed-Bold, 'Barlow Semi Condensed'"
       fill="#b1b4c5"><tspan
         id="tspan179"
         y="70"
         x="45">VENCE</tspan></text>
    <text
       y="0"
       x="-4"
       id="text185"
       font-weight="bold"
       font-style="condensed"
       font-size="11px"
       font-family="BarlowSemiCondensed-Bold, 'Barlow Semi Condensed'"
       fill="#b1b4c5"><tspan
         id="tspan183"
         y="225"
         x="301">VENCE</tspan></text>
    <text
       x="-2"
       y="8"
       id="text189"
       font-weight="bold"
       font-style="condensed"
       font-size="11px"
       font-family="BarlowSemiCondensed-Bold, 'Barlow Semi Condensed'"
       fill="#b1b4c5"><tspan
         id="tspan187"
         y="233"
         x="-1">VENCE</tspan></text>
    <text
       x="-4"
       y="0"
       id="text193"
       font-weight="bold"
       font-style="condensed"
       font-size="11px"
       font-family="BarlowSemiCondensed-Bold, 'Barlow Semi Condensed'"
       fill="#b1b4c5"><tspan
         id="tspan191"
         y="328"
         x="150">VENCE</tspan></text>
  </g>
</svg>
